<?xml version="1.0" encoding="UTF-8" standalone="no"?>
<!DOCTYPE svg PUBLIC "-//W3C//DTD SVG 1.1//EN" "http://www.w3.org/Graphics/SVG/1.1/DTD/svg11.dtd">
<svg width="100%" height="100%" viewBox="0 0 96 96" version="1.1" xmlns="http://www.w3.org/2000/svg" xmlns:xlink="http://www.w3.org/1999/xlink" xml:space="preserve" xmlns:serif="http://www.serif.com/" style="fill-rule:evenodd;clip-rule:evenodd;stroke-linejoin:round;stroke-miterlimit:2;">
    <g transform="matrix(1,0,0,1,-398,0)">
        <g id="symbol--pos-neg" transform="matrix(1.05343,0,0,0.941176,-355.584,0)">
            <rect x="715.365" y="0" width="91.131" height="102" style="fill:none;"/>
            <clipPath id="_clip1">
                <rect x="715.365" y="0" width="91.131" height="102"/>
            </clipPath>
            <g clip-path="url(#_clip1)">
                <g id="symbol" transform="matrix(2.84785,0,0,3.1875,715.365,0)">
                    <path d="M30,0L2,0C0.9,0 0,0.9 0,2L0,30C0,31.1 0.9,32 2,32L30,32C31.1,32 32,31.1 32,30L32,2C32,0.9 31.1,0 30,0Z" style="fill:rgb(208,66,0);fill-rule:nonzero;"/>
                    <path d="M18.1,27.2C18.1,26.6 18.3,26 18.5,25.4C17.9,25.9 17.7,26.5 17.5,27.3C17.6,26.4 18,20.4 18,20.1C19.5,15.7 18.8,2.7 20.8,1C18.6,1.4 17.8,3.7 17.1,5.5C16.4,3.4 17,2 14.6,1.2C16.5,2.8 16.1,4.2 16.5,6.4C15.4,4.9 15.7,3.1 14.4,1.6C14,1.2 12.8,0.3 12.8,0.3C12.8,0.4 13.8,2.3 14,3.4C14.2,4.4 14.6,6.5 14.6,7.3C14.8,11.5 15.8,15.6 16.6,19.8C16.7,20.5 17.1,22.6 17.1,22.6L17.2,23.5C17.1,22.9 16.9,22.4 16.9,22.2C16.7,21.6 16.2,20 16,19.3C14.2,15.6 11,8.5 6.6,7.4C9.1,9.6 11.7,12.5 12.3,15.3C11,13.4 5.8,9.5 3.6,8C7.6,12.1 10.8,16.4 14.3,21C15.3,22.3 16.6,25 16.7,25.6C16.8,26 16.8,27.7 16.9,28.7C15,24 13.9,21.6 10.3,19.5C9.7,19.2 7.8,18.5 7.8,18.5C8.7,19.5 9.7,19.5 10.5,20.8C8.9,19.7 7.2,19.5 5.3,19.5C11.3,22.6 14.5,23.5 16.5,29.4C16.7,30.4 16.4,31 16.4,32L17.7,32L17.7,30.6C17.8,30.2 17.8,28.9 18,28.6C18.6,27 19.6,26.3 21.1,25.3C19.7,25.8 19.1,25.6 18.1,27.2ZM24,13.2C23.5,13.7 22,15.5 22,15.5C22.1,12.9 22.7,10.1 24.4,8.1C22.1,9.6 20.8,13.4 20.1,15.7C19.9,16.6 17.1,22 18.4,24.9C18.6,23.8 19.2,22.8 19.9,21.9C20.2,21.5 21.5,19.4 22.8,16.5C23.9,13.6 25.8,11.8 28.4,10.4C26.5,10.7 25.4,11.8 24,13.2Z" style="fill:white;fill-rule:nonzero;"/>
                </g>
            </g>
        </g>
    </g>
</svg>
